<svg width="469" height="302" viewBox="0 0 469 302" fill="none" xmlns="http://www.w3.org/2000/svg">
<g clip-path="url(#clip0)">
<path d="M188.476 275.834C184.759 275.834 181.226 275.089 178.58 273.559L48.9877 198.908C46.3834 197.405 44.9617 195.327 44.9617 193.037C44.9617 190.299 47.0169 187.532 50.6065 185.467L297.755 43.0908C304.483 39.2283 314.689 38.807 320.517 42.1638L450.109 116.814C452.713 118.317 454.135 120.396 454.135 122.685C454.135 125.424 452.08 128.191 448.49 130.255L201.342 272.632C197.668 274.738 192.952 275.834 188.476 275.834ZM178.847 273.081C184.52 276.354 194.486 275.932 201.046 272.154L448.223 129.764C451.629 127.797 453.586 125.213 453.586 122.685C453.586 120.606 452.249 118.696 449.827 117.306L320.235 42.6554C314.562 39.3828 304.596 39.8042 298.036 43.5823L50.874 185.959C47.4674 187.925 45.5107 190.509 45.5107 193.037C45.5107 195.116 46.848 197.026 49.2551 198.417L178.847 273.081Z" fill="#42D4E8"/>
<path d="M453.867 88.2039L435.258 91.4062L320.39 25.2392C314.633 21.9246 304.568 22.3319 297.909 26.1662L78.1408 152.756L45.229 158.416V170.059H45.2431C45.229 172.18 46.4959 174.217 49.1142 175.72L178.706 250.37C184.464 253.684 194.529 253.277 201.187 249.443L448.363 107.053C451.939 104.988 453.797 102.361 453.853 99.8474H453.867V88.2039Z" fill="url(#paint0_linear)"/>
<path d="M178.706 238.642L49.1142 163.992C43.3568 160.677 44.0747 154.877 50.7331 151.042L297.895 8.65191C304.554 4.81757 314.619 4.39622 320.376 7.72493L449.968 82.3752C455.725 85.6899 455.008 91.4905 448.349 95.3249L201.201 237.715C194.543 241.535 184.478 241.957 178.706 238.642Z" fill="#24126A"/>
<path d="M448.363 95.325L201.201 237.715C194.543 241.55 184.478 241.971 178.72 238.642L49.1284 163.992C46.8198 162.658 45.5669 160.93 45.2995 159.09C44.9475 161.478 46.1863 163.809 49.1284 165.509L178.72 240.159C184.478 243.474 194.543 243.066 201.201 239.232L448.363 96.8418C452.347 94.5525 454.191 91.5468 453.797 88.7939C453.459 91.0974 451.629 93.457 448.363 95.325Z" fill="white"/>
<path opacity="0.51" d="M178.974 235.749L53.9989 163.739C48.4245 160.523 49.1283 154.919 55.5615 151.211L298.135 11.5032C304.568 7.79527 314.309 7.38796 319.883 10.6043L444.858 82.6141C450.432 85.8304 449.729 91.4345 443.296 95.1424L200.722 234.836C194.289 238.558 184.548 238.965 178.974 235.749Z" fill="#2A1F97"/>
<path d="M418.168 86.5186C416.254 87.6141 413.171 87.6141 411.257 86.5186C409.342 85.4231 409.342 83.6393 411.257 82.5438C413.171 81.4483 416.254 81.4483 418.168 82.5438C420.083 83.6393 420.083 85.4231 418.168 86.5186Z" fill="#42D4E8"/>
<path d="M391.802 67.3467L405.33 75.1418C406.977 76.0969 406.78 77.7542 404.866 78.8497C402.951 79.9453 400.08 80.0717 398.418 79.1166L384.891 71.3215C383.244 70.3664 383.441 68.7091 385.355 67.6136C387.27 66.518 390.155 66.3916 391.802 67.3467Z" fill="#42D4E8"/>
<path d="M315.815 22.6407L329.343 30.4358C330.99 31.3909 330.793 33.0482 328.879 34.1438C326.964 35.2393 324.078 35.3657 322.431 34.4106L308.903 26.6155C307.256 25.6605 307.453 24.0031 309.368 22.9076C311.268 21.798 314.154 21.6857 315.815 22.6407Z" fill="#42D4E8"/>
<g opacity="0.3">
<path opacity="0.3" d="M72.4116 281.044V274.752L70.666 273.783C70.1733 276.76 66.6682 278.713 63.7402 279.12L43.7932 290.764L35.0796 293.896L7.27776 279.584L7.92529 279.218C5.5463 278.109 4.2653 275.581 2.9843 273.263L1.11207 274.373L0 274.696V281.157C0 282.393 0.81646 283.629 2.44938 284.556L30.2935 300.595C33.5593 302.477 38.8522 302.477 42.1181 300.595L69.9622 284.556C71.5669 283.629 72.3834 282.421 72.4116 281.213C72.4116 281.157 72.3975 281.1 72.4116 281.044Z" fill="url(#paint1_linear)"/>
<path opacity="0.3" d="M63.7402 279.12L43.7932 290.763L36.2198 293.488V301.999C38.3595 301.999 40.4992 301.536 42.1321 300.595L69.9622 284.555C71.567 283.628 72.3834 282.42 72.4116 281.212C72.4116 281.156 72.4116 281.1 72.4116 281.044V274.752L70.8209 273.867H70.6519C70.103 276.788 66.64 278.712 63.7402 279.12Z" fill="#0F054C"/>
<g opacity="0.3">
<path opacity="0.3" d="M30.2935 294.19L2.44938 278.151C-0.81646 276.269 -0.81646 273.221 2.44938 271.339L30.2935 255.299C33.5593 253.417 38.8522 253.417 42.1181 255.299L69.9622 271.339C73.228 273.221 73.228 276.269 69.9622 278.151L42.1181 294.19C38.8522 296.072 33.5452 296.072 30.2935 294.19Z" fill="url(#paint2_linear)"/>
</g>
<g opacity="0.3">
<path opacity="0.3" d="M30.2935 294.19L2.44938 278.151C-0.81646 276.269 -0.81646 273.221 2.44938 271.339L30.2935 255.299C33.5593 253.417 38.8522 253.417 42.1181 255.299L69.9622 271.339C73.228 273.221 73.228 276.269 69.9622 278.151L42.1181 294.19C38.8522 296.072 33.5452 296.072 30.2935 294.19Z" fill="#0F054C"/>
</g>
</g>
<path d="M36.2058 270.862C34.3054 270.862 32.4051 270.44 30.9551 269.612L3.11103 253.572C1.66111 252.743 0.872803 251.62 0.872803 250.412C0.872803 249.204 1.67519 248.08 3.11103 247.252L30.9551 231.212C33.855 229.541 38.5567 229.541 41.4565 231.212L69.3006 247.252C70.7505 248.08 71.5388 249.204 71.5388 250.412C71.5388 251.62 70.7364 252.743 69.3006 253.572L41.4565 269.612C40.0066 270.44 38.1062 270.862 36.2058 270.862ZM36.2058 230.44C34.3899 230.44 32.5881 230.833 31.1944 231.633L3.35034 247.659C2.05526 248.403 1.35142 249.372 1.35142 250.398C1.35142 251.423 2.05526 252.392 3.35034 253.137L31.1944 269.176C33.9535 270.763 38.444 270.763 41.2031 269.176L69.0472 253.137C70.3423 252.392 71.0461 251.423 71.0461 250.398C71.0461 249.372 70.3423 248.403 69.0472 247.659L41.2031 231.619C39.8236 230.833 38.0077 230.44 36.2058 230.44Z" fill="#42D4E8"/>
<path opacity="0.4" d="M72.4116 244.246V234.737L70.666 233.768C70.1733 236.746 66.6682 238.698 63.7402 239.105L43.7932 250.749L35.0796 253.881L7.27776 239.569L7.92529 239.204C5.5463 238.094 4.2653 235.566 2.9843 233.249L1.11207 234.358L0 234.681V244.358C0 245.594 0.81646 246.83 2.44938 247.757L30.2935 263.797C33.5593 265.679 38.8522 265.679 42.1181 263.797L69.9622 247.757C71.5669 246.83 72.3834 245.622 72.4116 244.414C72.4116 244.358 72.3975 244.302 72.4116 244.246Z" fill="#42D4E8"/>
<path d="M72.4116 235.791V229.499L70.666 228.529C70.1733 231.507 66.6682 233.459 63.7402 233.867L43.7791 245.51L35.0655 248.642L7.27776 234.33L7.92529 233.965C5.5463 232.855 4.2653 230.327 2.9843 228.01L1.11207 229.119L0 229.442V235.903C0 237.139 0.81646 238.375 2.44938 239.302L30.2935 255.342C33.5593 257.224 38.8522 257.224 42.1181 255.342L69.9622 239.302C71.5669 238.375 72.3834 237.167 72.4116 235.959C72.4116 235.903 72.3975 235.847 72.4116 235.791Z" fill="url(#paint3_linear)"/>
<path opacity="0.3" d="M63.7402 233.867L43.7792 245.51L36.2058 248.235V256.746C38.3455 256.746 40.4852 256.283 42.1181 255.342L69.9622 239.302C71.567 238.375 72.3834 237.167 72.4116 235.959C72.4116 235.903 72.4116 235.847 72.4116 235.791V229.499L70.8209 228.614H70.652C70.103 231.535 66.6401 233.459 63.7402 233.867Z" fill="#0F054C"/>
<path d="M30.2934 248.951L2.44926 232.912C-0.816582 231.029 -0.816582 227.982 2.44926 226.1L30.2934 210.06C33.5592 208.178 38.8521 208.178 42.118 210.06L69.9621 226.1C73.2279 227.982 73.2279 231.029 69.9621 232.912L42.118 248.951C38.8521 250.819 33.5451 250.819 30.2934 248.951Z" fill="url(#paint4_linear)"/>
<path d="M36.2057 246.03C34.4883 246.03 32.7709 245.651 31.4618 244.906L9.71299 232.378C8.40383 231.62 7.68591 230.608 7.68591 229.499C7.68591 228.403 8.40383 227.378 9.71299 226.633L31.4618 214.105C34.0801 212.602 38.3313 212.602 40.9496 214.105L62.6984 226.633C64.0076 227.392 64.7255 228.403 64.7255 229.499C64.7255 230.594 64.0076 231.62 62.6984 232.378L40.9496 244.906C39.6405 245.651 37.9231 246.03 36.2057 246.03ZM36.2057 213.445C34.5728 213.445 32.9539 213.796 31.7152 214.512L9.96637 227.041C8.81206 227.701 8.1786 228.572 8.1786 229.485C8.1786 230.398 8.81206 231.268 9.96637 231.943L31.7152 244.471C34.1927 245.903 38.2328 245.903 40.7103 244.471L62.4591 231.943C63.6134 231.282 64.2469 230.412 64.2469 229.485C64.2469 228.572 63.6134 227.701 62.4591 227.041L40.7103 214.512C39.4575 213.81 37.8245 213.445 36.2057 213.445Z" fill="#14136A"/>
<path d="M69.9622 232.911L42.1181 248.951C38.8522 250.833 33.5593 250.833 30.2935 248.951L2.44938 232.911C0.985385 232.069 0.183002 231.001 0.0281559 229.892C-0.168921 231.254 0.647539 232.644 2.44938 233.684L30.2935 249.723C33.5593 251.606 38.8522 251.606 42.1181 249.723L69.9622 233.684C71.764 232.644 72.5664 231.24 72.3834 229.892C72.2145 230.987 71.4121 232.069 69.9622 232.911Z" fill="white"/>
<g opacity="0.3">
<path opacity="0.3" d="M107.491 93.3162V87.0239L105.746 86.0548C105.253 89.0324 101.748 90.9847 98.8199 91.392L78.8729 103.035L70.1593 106.168L42.3715 91.8555L43.019 91.4903C40.64 90.3808 39.359 87.8526 38.0781 85.5352L36.2058 86.6447L35.0938 86.9537V93.4145C35.0938 94.6505 35.9102 95.8865 37.5431 96.8135L65.3872 112.853C68.6531 114.735 73.946 114.735 77.2118 112.853L105.056 96.8135C106.661 95.8865 107.477 94.6786 107.505 93.4707C107.491 93.4145 107.491 93.3583 107.491 93.3162Z" fill="url(#paint5_linear)"/>
<path opacity="0.3" d="M98.8198 91.3779L78.8729 103.021L71.2995 105.746V114.258C73.4392 114.258 75.5789 113.794 77.2118 112.853L105.056 96.8134C106.661 95.8864 107.477 94.6785 107.505 93.4706C107.505 93.4145 107.505 93.3583 107.505 93.3021V87.0098L105.915 86.125H105.746C105.197 89.0604 101.734 90.9846 98.8198 91.3779Z" fill="#0F054C"/>
<g opacity="0.3">
<path opacity="0.3" d="M65.3872 106.462L37.5431 90.4227C34.2773 88.5407 34.2773 85.4929 37.5431 83.6108L65.3872 67.5712C68.6531 65.6892 73.946 65.6892 77.2118 67.5712L105.056 83.6108C108.322 85.4929 108.322 88.5407 105.056 90.4227L77.2118 106.462C73.946 108.344 68.639 108.344 65.3872 106.462Z" fill="url(#paint6_linear)"/>
</g>
<g opacity="0.3">
<path opacity="0.3" d="M65.3872 106.462L37.5431 90.4227C34.2773 88.5407 34.2773 85.4929 37.5431 83.6108L65.3872 67.5712C68.6531 65.6892 73.946 65.6892 77.2118 67.5712L105.056 83.6108C108.322 85.4929 108.322 88.5407 105.056 90.4227L77.2118 106.462C73.946 108.344 68.639 108.344 65.3872 106.462Z" fill="#0F054C"/>
</g>
</g>
<path d="M71.2996 86.2376C69.3992 86.2376 67.4988 85.8163 66.0489 84.9876L38.2048 68.948C36.7549 68.1193 35.9666 66.9957 35.9666 65.7878C35.9666 64.5799 36.7689 63.4563 38.2048 62.6276L66.0489 46.588C68.9487 44.9166 73.6504 44.9166 76.5503 46.588L104.394 62.6276C105.844 63.4563 106.633 64.5799 106.633 65.7878C106.633 66.9957 105.83 68.1193 104.394 68.948L76.5362 84.9876C75.1003 85.8303 73.2 86.2376 71.2996 86.2376ZM71.2996 45.8155C69.4837 45.8155 67.6818 46.2088 66.2882 47.0094L38.4441 63.049C37.149 63.7934 36.4452 64.7625 36.4452 65.7878C36.4452 66.8131 37.149 67.7822 38.4441 68.5266L66.2882 84.5663C69.0473 86.1534 73.5378 86.1534 76.2969 84.5663L104.141 68.5266C105.422 67.7822 106.14 66.8131 106.14 65.7878C106.14 64.7625 105.436 63.7934 104.141 63.049L76.2969 47.0094C74.9173 46.2088 73.1014 45.8155 71.2996 45.8155Z" fill="#42D4E8"/>
<path opacity="0.4" d="M107.491 59.636V50.1273L105.746 49.1582C105.253 52.1358 101.748 54.0881 98.8199 54.4954L78.8729 66.1389L70.1593 69.271L42.3715 54.9449L43.019 54.5797C40.64 53.4701 39.359 50.942 38.0781 48.6245L36.2058 49.7341L35.0938 50.0431V59.7202C35.0938 60.9562 35.9102 62.1922 37.5431 63.1192L65.3872 79.1588C68.6531 81.0408 73.946 81.0408 77.2118 79.1588L105.056 63.1192C106.661 62.1922 107.477 60.9843 107.505 59.7764C107.491 59.7343 107.491 59.6781 107.491 59.636Z" fill="#42D4E8"/>
<path d="M107.491 51.1809V44.8887L105.746 43.9196C105.253 46.8972 101.748 48.8494 98.8199 49.2568L78.8729 60.9002L70.1593 64.0323L42.3715 49.7202L43.019 49.3551C40.64 48.2455 39.359 45.7174 38.0781 43.3999L36.2058 44.5095L35.0938 44.8185V51.2793C35.0938 52.5152 35.9102 53.7512 37.5431 54.6782L65.3872 70.7178C68.6531 72.5999 73.946 72.5999 77.2118 70.7178L105.056 54.6782C106.661 53.7512 107.477 52.5433 107.505 51.3354C107.491 51.2793 107.491 51.2231 107.491 51.1809Z" fill="url(#paint7_linear)"/>
<path opacity="0.3" d="M98.8198 49.2427L78.8729 60.8861L71.2995 63.6109V72.1223C73.4392 72.1223 75.5789 71.6588 77.2118 70.7178L105.056 54.6781C106.661 53.7512 107.477 52.5433 107.505 51.3354C107.505 51.2792 107.505 51.223 107.505 51.1668V44.8746L105.915 43.9897H105.746C105.197 46.9252 101.734 48.8494 98.8198 49.2427Z" fill="#0F054C"/>
<path d="M65.3871 64.3271L37.543 48.2875C34.2772 46.4054 34.2772 43.3576 37.543 41.4756L65.3871 25.436C68.6529 23.5539 73.9459 23.5539 77.2117 25.436L105.056 41.4756C108.322 43.3576 108.322 46.4054 105.056 48.2875L77.2117 64.3271C73.9459 66.2092 68.6389 66.2092 65.3871 64.3271Z" fill="url(#paint8_linear)"/>
<path d="M71.2995 61.4059C69.5821 61.4059 67.8647 61.0266 66.5556 60.2823L44.7927 47.7539C43.4835 46.9955 42.7656 45.9842 42.7656 44.8747C42.7656 43.7791 43.4835 42.7538 44.7927 42.0095L66.5415 29.4811C69.1598 27.9783 73.411 27.9783 76.0293 29.4811L97.7781 42.0095C99.0873 42.7679 99.8052 43.7791 99.8052 44.8747C99.8052 45.9702 99.0873 46.9955 97.7781 47.7399L76.0293 60.2682C74.7343 61.0407 73.0169 61.4059 71.2995 61.4059ZM71.2995 28.821C69.6666 28.821 68.0477 29.1721 66.809 29.8884L45.0461 42.4308C43.8918 43.0909 43.2583 43.9617 43.2583 44.8747C43.2583 45.7876 43.8918 46.6584 45.0461 47.3326L66.7949 59.8609C69.2724 61.2935 73.3125 61.2935 75.79 59.8609L97.5388 47.3326C98.6931 46.6725 99.3266 45.8017 99.3266 44.8887C99.3266 43.9758 98.6931 43.105 97.5388 42.4449L75.79 29.9165C74.5513 29.1862 72.9183 28.821 71.2995 28.821Z" fill="#14136A"/>
<path d="M105.056 48.2873L77.2118 64.3269C73.946 66.209 68.6531 66.209 65.3872 64.3269L37.5431 48.2873C36.0791 47.4446 35.2768 46.3771 35.1219 45.2676C34.9248 46.63 35.7413 48.0204 37.5431 49.0598L65.3872 65.0994C68.6531 66.9815 73.946 66.9815 77.2118 65.0994L105.056 49.0598C106.858 48.0204 107.66 46.6159 107.477 45.2676C107.308 46.3771 106.506 47.4446 105.056 48.2873Z" fill="white"/>
<path opacity="0.4" d="M258.367 176.379L150.341 114.159C147.554 112.558 147.906 109.749 151.13 107.881L214.152 71.574C217.375 69.7201 222.246 69.5094 225.047 71.1246L333.073 133.345C335.861 134.946 335.509 137.755 332.285 139.623L269.263 175.93C266.039 177.784 261.169 177.98 258.367 176.379Z" fill="#24126A"/>
<path d="M361.734 84.9595L359.932 84.7208C359.735 84.5803 359.538 84.4399 359.313 84.3135L220.247 4.1996C216.658 2.13496 210.379 2.38777 206.227 4.77546L125.101 51.5179C124.017 52.1359 123.201 52.8522 122.624 53.5826L121.667 53.3016V56.0966H121.681C121.695 57.4028 122.483 58.6529 124.102 59.5798L263.168 139.694C266.757 141.758 273.036 141.506 277.188 139.118L358.313 92.3895C360.636 91.0552 361.79 89.3416 361.748 87.7124V84.9595H361.734Z" fill="#9FFFF8"/>
<path d="M263.152 136.899L124.101 56.7848C120.511 54.7201 120.962 51.0965 125.1 48.7088L206.225 1.98039C210.378 -0.407299 216.656 -0.674158 220.246 1.40453L359.312 81.5184C362.901 83.583 362.451 87.2067 358.312 89.5944L277.173 136.309C273.034 138.696 266.756 138.963 263.152 136.899Z" fill="#42C0E8"/>
<path d="M285.592 131.463L133.519 43.8634L149.666 34.5654L301.738 122.165L285.592 131.463Z" fill="#1B027C"/>
<g opacity="0.1">
<path opacity="0.1" d="M357.047 257.365C357.047 241.704 368.069 222.659 381.667 214.822C388.48 210.903 394.646 210.538 399.094 213.122L403.754 215.833L402.402 215.959C404.852 218.951 406.287 223.375 406.287 229.007C406.287 244.668 395.265 263.713 381.667 271.55C376.993 274.247 372.63 275.258 368.913 274.795L369.012 276.045L364.282 273.292C364.268 273.278 364.24 273.264 364.226 273.264L364.029 273.151H364.043C359.721 270.511 357.047 265.076 357.047 257.365Z" fill="#9FFFF8"/>
<path opacity="0.1" d="M403.763 255.962C413.377 239.35 413.376 221.393 403.761 215.854C394.147 210.316 378.56 219.293 368.947 235.905C359.334 252.518 359.335 270.475 368.949 276.013C378.563 281.552 394.15 272.574 403.763 255.962Z" fill="#42C0E8"/>
</g>
<path opacity="0.2" d="M384.778 293.194C363.226 293.194 341.674 288.474 325.275 279.022C309.34 269.836 300.556 257.617 300.556 244.611C300.556 231.605 309.34 219.372 325.275 210.186C358.088 191.282 411.468 191.282 444.281 210.186C460.216 219.372 469 231.591 469 244.597C469 257.603 460.216 269.836 444.281 279.008C427.881 288.474 406.33 293.194 384.778 293.194ZM384.778 196.492C363.311 196.492 341.857 201.198 325.514 210.608C309.734 219.695 301.034 231.774 301.034 244.611C301.034 257.449 309.72 269.513 325.514 278.601C358.187 297.421 411.355 297.421 444.028 278.601C459.808 269.513 468.507 257.435 468.507 244.611C468.507 231.788 459.822 219.709 444.028 210.622C427.698 201.198 406.245 196.492 384.778 196.492Z" fill="#42C0E8"/>
<path d="M384.778 274.837C371.391 274.837 358.018 271.901 347.826 266.03C337.916 260.314 332.454 252.715 332.454 244.611C332.454 236.507 337.916 228.895 347.826 223.178C368.195 211.437 401.36 211.437 421.73 223.178C431.64 228.895 437.102 236.507 437.102 244.611C437.102 252.715 431.64 260.328 421.73 266.044C411.538 271.901 398.165 274.837 384.778 274.837ZM384.778 214.85C371.489 214.85 358.187 217.771 348.065 223.6C338.31 229.218 332.933 236.69 332.933 244.611C332.933 252.533 338.31 259.991 348.065 265.609C368.308 277.267 401.248 277.267 421.476 265.609C431.232 259.991 436.609 252.533 436.609 244.597C436.609 236.662 431.232 229.218 421.476 223.586C411.369 217.771 398.081 214.85 384.778 214.85Z" fill="#42C0E8"/>
<path d="M357.047 257.365C357.047 241.704 368.069 222.659 381.667 214.822C388.48 210.903 394.646 210.538 399.094 213.122L403.754 215.833L402.402 215.959C404.852 218.951 406.287 223.375 406.287 229.007C406.287 244.668 395.265 263.713 381.667 271.55C376.993 274.247 372.63 275.258 368.913 274.795L369.012 276.045L364.282 273.292C364.268 273.278 364.24 273.264 364.226 273.264L364.029 273.151H364.043C359.721 270.511 357.047 265.076 357.047 257.365Z" fill="#9FFFF8"/>
<path d="M403.763 255.962C413.377 239.35 413.376 221.393 403.761 215.854C394.147 210.316 378.56 219.293 368.947 235.905C359.334 252.518 359.335 270.475 368.949 276.013C378.563 281.552 394.15 272.574 403.763 255.962Z" fill="#42C0E8"/>
</g>
<defs>
<linearGradient id="paint0_linear" x1="45.2273" y1="137.793" x2="453.864" y2="137.793" gradientUnits="userSpaceOnUse">
<stop stop-color="#BCBEFF"/>
<stop offset="0.151" stop-color="#A3A7F5"/>
<stop offset="0.3866" stop-color="#8289E8"/>
<stop offset="0.6124" stop-color="#6A73DF"/>
<stop offset="0.8221" stop-color="#5C66D9"/>
<stop offset="1" stop-color="#5761D7"/>
</linearGradient>
<linearGradient id="paint1_linear" x1="7.20343" y1="262.241" x2="64.586" y2="295.446" gradientUnits="userSpaceOnUse">
<stop stop-color="#BCBEFF"/>
<stop offset="0.2271" stop-color="#AAADF8"/>
<stop offset="0.6802" stop-color="#7C83E5"/>
<stop offset="1" stop-color="#5761D7"/>
</linearGradient>
<linearGradient id="paint2_linear" x1="3.45196e-05" y1="274.75" x2="72.4055" y2="274.75" gradientUnits="userSpaceOnUse">
<stop stop-color="#E9E9FD"/>
<stop offset="0.3601" stop-color="#D3D2F9"/>
<stop offset="0.7062" stop-color="#C5C4F7"/>
<stop offset="1" stop-color="#C0BFF6"/>
</linearGradient>
<linearGradient id="paint3_linear" x1="7.20343" y1="216.99" x2="64.586" y2="250.195" gradientUnits="userSpaceOnUse">
<stop stop-color="#BCBEFF"/>
<stop offset="0.2271" stop-color="#AAADF8"/>
<stop offset="0.6802" stop-color="#7C83E5"/>
<stop offset="1" stop-color="#5761D7"/>
</linearGradient>
<linearGradient id="paint4_linear" x1="-8.75507e-05" y1="229.499" x2="72.4054" y2="229.499" gradientUnits="userSpaceOnUse">
<stop stop-color="#E9E9FD"/>
<stop offset="0.3601" stop-color="#D3D2F9"/>
<stop offset="0.7062" stop-color="#C5C4F7"/>
<stop offset="1" stop-color="#C0BFF6"/>
</linearGradient>
<linearGradient id="paint5_linear" x1="42.2945" y1="74.5062" x2="99.6772" y2="107.711" gradientUnits="userSpaceOnUse">
<stop stop-color="#BCBEFF"/>
<stop offset="0.2271" stop-color="#AAADF8"/>
<stop offset="0.6802" stop-color="#7C83E5"/>
<stop offset="1" stop-color="#5761D7"/>
</linearGradient>
<linearGradient id="paint6_linear" x1="35.0912" y1="87.0148" x2="107.497" y2="87.0148" gradientUnits="userSpaceOnUse">
<stop stop-color="#E9E9FD"/>
<stop offset="0.3601" stop-color="#D3D2F9"/>
<stop offset="0.7062" stop-color="#C5C4F7"/>
<stop offset="1" stop-color="#C0BFF6"/>
</linearGradient>
<linearGradient id="paint7_linear" x1="42.2945" y1="32.3709" x2="99.6772" y2="65.5755" gradientUnits="userSpaceOnUse">
<stop stop-color="#BCBEFF"/>
<stop offset="0.2271" stop-color="#AAADF8"/>
<stop offset="0.6802" stop-color="#7C83E5"/>
<stop offset="1" stop-color="#5761D7"/>
</linearGradient>
<linearGradient id="paint8_linear" x1="35.0911" y1="44.8796" x2="107.496" y2="44.8796" gradientUnits="userSpaceOnUse">
<stop stop-color="#E9E9FD"/>
<stop offset="0.3601" stop-color="#D3D2F9"/>
<stop offset="0.7062" stop-color="#C5C4F7"/>
<stop offset="1" stop-color="#C0BFF6"/>
</linearGradient>
<clipPath id="clip0">
<rect width="469" height="302" fill="white"/>
</clipPath>
</defs>
</svg>
