<svg width="36" height="36" viewBox="0 0 36 36" fill="none" xmlns="http://www.w3.org/2000/svg">
<g clip-path="url(#clip0)">
<path d="M34.707 10.3392C34.647 10.1928 34.5582 10.0608 34.4478 9.9504L24.8502 0.3528C24.7398 0.2424 24.6078 0.1536 24.4614 0.0936C24.3174 0.0336 24.1614 0 24.0006 0H8.40061C7.07821 0 6.00061 1.0776 6.00061 2.4V13.2C6.00061 13.8624 6.53821 14.4 7.20061 14.4C7.86301 14.4 8.40061 13.8624 8.40061 13.2V2.4H22.8006V9.6C22.8006 10.9224 23.8782 12 25.2006 12H32.4006V31.2H18.0006C17.3382 31.2 16.8006 31.7376 16.8006 32.4C16.8006 33.0624 17.3382 33.6 18.0006 33.6H32.4006C33.723 33.6 34.8006 32.5224 34.8006 31.2V10.8C34.8006 10.6392 34.767 10.4832 34.707 10.3392ZM25.2006 9.6V4.0968L30.7038 9.6H25.2006Z" fill="#0088EB"/>
<path d="M13.1671 34.5096L11.3287 27.1344C12.4759 26.04 13.2007 24.5064 13.2007 22.8C13.2007 19.4928 10.5079 16.8 7.20074 16.8C3.89353 16.8 1.20073 19.4928 1.20073 22.8C1.20073 24.5064 1.92554 26.04 3.07274 27.1344L1.23433 34.5096C1.12153 34.9632 1.28474 35.4433 1.64954 35.736C2.01434 36.0312 2.51833 36.0816 2.93593 35.8728L7.20074 33.7416L11.4631 35.8728C11.6335 35.9568 11.8183 36 12.0007 36C12.2671 36 12.5335 35.9113 12.7519 35.736C13.1167 35.4433 13.2799 34.9632 13.1671 34.5096ZM7.73594 31.3273C7.39754 31.1593 6.99914 31.1593 6.66314 31.3273L4.19354 32.5609L5.22074 28.4376C5.84474 28.6584 6.50473 28.8 7.20074 28.8C7.89674 28.8 8.55674 28.6584 9.17833 28.4376L10.2055 32.5609L7.73594 31.3273ZM7.20074 26.4C5.21594 26.4 3.60074 24.7848 3.60074 22.8C3.60074 20.8152 5.21594 19.2 7.20074 19.2C9.18554 19.2 10.8007 20.8152 10.8007 22.8C10.8007 24.7848 9.18554 26.4 7.20074 26.4Z" fill="#0088EB"/>
<path d="M19.2006 7.19995H12.0006C11.3382 7.19995 10.8006 7.73755 10.8006 8.39995C10.8006 9.06235 11.3382 9.59995 12.0006 9.59995H19.2006C19.863 9.59995 20.4006 9.06235 20.4006 8.39995C20.4006 7.73755 19.863 7.19995 19.2006 7.19995Z" fill="#0088EB"/>
<path d="M28.8006 14.3999H14.4006C13.7382 14.3999 13.2006 14.9375 13.2006 15.5999C13.2006 16.2623 13.7382 16.7999 14.4006 16.7999H28.8006C29.463 16.7999 30.0006 16.2623 30.0006 15.5999C30.0006 14.9375 29.463 14.3999 28.8006 14.3999Z" fill="#0088EB"/>
<path d="M28.8006 21.6001H16.8006C16.1382 21.6001 15.6006 22.1377 15.6006 22.8001C15.6006 23.4625 16.1382 24.0001 16.8006 24.0001H28.8006C29.463 24.0001 30.0006 23.4625 30.0006 22.8001C30.0006 22.1377 29.463 21.6001 28.8006 21.6001Z" fill="#0088EB"/>
</g>
<defs>
<clipPath id="clip0">
<rect width="36" height="36" fill="white"/>
</clipPath>
</defs>
</svg>
