<svg width="61" height="53" viewBox="0 0 61 53" fill="none" xmlns="http://www.w3.org/2000/svg">
<path d="M43.8438 0.429688H34.3125C33.5229 0.429688 32.8828 1.06978 32.8828 1.85938V4.71875C32.8828 5.50834 33.5229 6.14844 34.3125 6.14844H43.8438C44.6333 6.14844 45.2734 5.50834 45.2734 4.71875V1.85938C45.2734 1.06978 44.6333 0.429688 43.8438 0.429688Z" fill="#0088EB"/>
<path d="M16.2031 21.3984H6.67188C6.2927 21.3984 5.92905 21.5491 5.66093 21.8172C5.39281 22.0853 5.24219 22.4489 5.24219 22.8281C5.24219 23.2073 5.39281 23.5709 5.66093 23.8391C5.92905 24.1072 6.2927 24.2578 6.67188 24.2578H16.2031C16.5823 24.2578 16.9459 24.1072 17.2141 23.8391C17.4822 23.5709 17.6328 23.2073 17.6328 22.8281C17.6328 22.4489 17.4822 22.0853 17.2141 21.8172C16.9459 21.5491 16.5823 21.3984 16.2031 21.3984Z" fill="#0088EB"/>
<path d="M15.7266 34.2656C15.7266 33.8864 15.5759 33.5228 15.3078 33.2547C15.0397 32.9866 14.6761 32.8359 14.2969 32.8359H4.76562C4.38645 32.8359 4.0228 32.9866 3.75468 33.2547C3.48656 33.5228 3.33594 33.8864 3.33594 34.2656C3.33594 34.6448 3.48656 35.0084 3.75468 35.2766C4.0228 35.5447 4.38645 35.6953 4.76562 35.6953H14.2969C14.6761 35.6953 15.0397 35.5447 15.3078 35.2766C15.5759 35.0084 15.7266 34.6448 15.7266 34.2656Z" fill="#0088EB"/>
<path d="M15.25 38.5547H8.57812C8.19895 38.5547 7.8353 38.7053 7.56718 38.9734C7.29906 39.2416 7.14844 39.6052 7.14844 39.9844C7.14844 40.3636 7.29906 40.7272 7.56718 40.9953C7.8353 41.2634 8.19895 41.4141 8.57812 41.4141H15.25C15.6292 41.4141 15.9928 41.2634 16.2609 40.9953C16.5291 40.7272 16.6797 40.3636 16.6797 39.9844C16.6797 39.6052 16.5291 39.2416 16.2609 38.9734C15.9928 38.7053 15.6292 38.5547 15.25 38.5547Z" fill="#0088EB"/>
<path d="M15.7266 28.5469C15.7266 28.1677 15.5759 27.8041 15.3078 27.5359C15.0397 27.2678 14.6761 27.1172 14.2969 27.1172H1.90625C1.52707 27.1172 1.16343 27.2678 0.895308 27.5359C0.62719 27.8041 0.476563 28.1677 0.476562 28.5469C0.476563 28.9261 0.62719 29.2897 0.895308 29.5578C1.16343 29.8259 1.52707 29.9766 1.90625 29.9766H14.2969C14.6761 29.9766 15.0397 29.8259 15.3078 29.5578C15.5759 29.2897 15.7266 28.9261 15.7266 28.5469Z" fill="#0088EB"/>
<path d="M39.0781 31.4062V15.2031C30.1437 15.2031 22.875 22.4718 22.875 31.4062C22.875 40.3407 30.1437 47.6094 39.0781 47.6094C48.0126 47.6094 55.2812 40.3407 55.2812 31.4062H39.0781Z" fill="#0088EB"/>
<path d="M54.7591 16.794L56.2921 15.2609C56.4266 15.1285 56.5336 14.9709 56.6069 14.7969C56.6802 14.623 56.7183 14.4363 56.7191 14.2476C56.7199 14.0589 56.6833 13.8718 56.6114 13.6973C56.5395 13.5228 56.4338 13.3643 56.3004 13.2308C56.1669 13.0974 56.0084 12.9917 55.8339 12.9198C55.6593 12.8479 55.4723 12.8113 55.2836 12.8121C55.0949 12.8129 54.9082 12.851 54.7343 12.9243C54.5603 12.9976 54.4026 13.1046 54.2703 13.2391L52.6748 14.8345C49.6021 12.3033 45.8831 10.6813 41.9374 10.1516V7.57812H36.2187V10.1516C32.2732 10.6811 28.5541 12.3028 25.4814 14.8338L23.8859 13.2384C23.7535 13.1038 23.5958 12.9968 23.4219 12.9236C23.248 12.8503 23.0613 12.8121 22.8725 12.8114C22.6838 12.8106 22.4968 12.8472 22.3223 12.9191C22.1478 12.991 21.9892 13.0967 21.8558 13.2301C21.7223 13.3636 21.6166 13.5221 21.5447 13.6966C21.4729 13.8711 21.4363 14.0581 21.437 14.2469C21.4378 14.4356 21.4759 14.6223 21.5492 14.7962C21.6225 14.9701 21.7295 15.1278 21.864 15.2602L23.397 16.7933C19.6896 20.7555 17.6288 25.98 17.6328 31.4062C17.6328 43.2312 27.2531 52.8516 39.0781 52.8516C50.903 52.8516 60.5234 43.2312 60.5234 31.4062C60.5272 25.9803 58.4663 20.7561 54.7591 16.794ZM39.0781 49.0391C35.5906 49.0391 32.1815 48.0049 29.2818 46.0674C26.3821 44.1299 24.1221 41.376 22.7875 38.154C21.4529 34.9321 21.1037 31.3867 21.7841 27.9663C22.4644 24.5458 24.1438 21.404 26.6098 18.938C29.0758 16.472 32.2176 14.7926 35.6381 14.1122C39.0585 13.4319 42.6039 13.7811 45.8259 15.1157C49.0478 16.4502 51.8017 18.7103 53.7392 21.61C55.6767 24.5097 56.7109 27.9188 56.7109 31.4062C56.7109 33.7218 56.2548 36.0147 55.3687 38.154C54.4825 40.2933 53.1837 42.2372 51.5464 43.8745C49.909 45.5119 47.9652 46.8107 45.8259 47.6968C43.6865 48.583 41.3936 49.0391 39.0781 49.0391Z" fill="#0088EB"/>
</svg>
