<svg width="49" height="45" viewBox="0 0 49 45" fill="none" xmlns="http://www.w3.org/2000/svg">
<path d="M46.0202 17.5169L42.9482 17.9173V15.2584C46.3925 14.5869 49.0001 11.5469 49.0001 7.90935C49.0001 3.78091 45.6413 0.422302 41.513 0.422302C37.3845 0.422302 34.0259 3.7811 34.0259 7.90935C34.0259 11.547 36.6335 14.5871 40.0776 15.2584V18.2915L8.9224 22.3529V20.2016C12.3666 19.5301 14.9741 16.4901 14.9741 12.8526C14.9741 8.72426 11.6154 5.36556 7.48705 5.36556C3.3587 5.36556 0 8.72426 0 12.8526C0 16.4902 2.60762 19.5303 6.05169 20.2016V22.7271L2.71165 23.1624C1.92555 23.2648 1.37143 23.9853 1.47392 24.7712C1.56819 25.4943 2.18529 26.0212 2.8954 26.0212C2.95723 26.0212 3.01982 26.0171 3.08279 26.0089L22.4982 23.4779L18.2885 41.7068H16.9797C16.187 41.7068 15.5444 42.3495 15.5444 43.1422C15.5444 43.9349 16.187 44.5775 16.9797 44.5775H32.0273C32.82 44.5775 33.4627 43.9349 33.4627 43.1422C33.4627 42.3495 32.82 41.7068 32.0273 41.7068H30.7036L26.1305 23.0044L46.3911 20.3632C47.1771 20.2608 47.7314 19.5403 47.6289 18.7544C47.5264 17.9685 46.8059 17.4142 46.0202 17.5169ZM2.87062 12.8526C2.87062 10.3071 4.94154 8.23618 7.48705 8.23618C10.0326 8.23618 12.1035 10.3072 12.1035 12.8526C12.1035 15.398 10.0326 17.469 7.48705 17.469C4.94154 17.469 2.87062 15.398 2.87062 12.8526ZM27.7485 41.7069H21.2347L24.3986 28.0069L27.7485 41.7069ZM36.8963 7.90925C36.8963 5.36374 38.9673 3.29282 41.5128 3.29282C44.0584 3.29282 46.1293 5.36384 46.1293 7.90925C46.1293 10.4549 44.0583 12.5258 41.5128 12.5258C38.9673 12.5258 36.8963 10.4549 36.8963 7.90925Z" fill="#0088EB"/>
</svg>
