<svg width="45" height="45" viewBox="0 0 45 45" fill="none" xmlns="http://www.w3.org/2000/svg">
<g clip-path="url(#clip0)">
<path d="M43.2422 12.041C42.2713 12.041 41.4844 11.254 41.4844 10.2832V5.27344C41.4844 4.30418 40.6958 3.51562 39.7266 3.51562H34.8047C33.8338 3.51562 33.0469 2.72865 33.0469 1.75781C33.0469 0.786973 33.8338 0 34.8047 0H39.7266C42.6343 0 45 2.36566 45 5.27344V10.2832C45 11.254 44.213 12.041 43.2422 12.041ZM15.5691 31.8289L38.3328 9.06522C39.0193 8.3787 39.0193 7.26574 38.3328 6.57932C37.6463 5.89289 36.5333 5.8928 35.8469 6.57932L13.0832 29.343C12.3967 30.0295 12.3967 31.1425 13.0832 31.8289C13.4264 32.1721 13.8763 32.3438 14.3262 32.3438C14.7761 32.3438 15.2259 32.1721 15.5691 31.8289ZM34.8047 29.9707C34.8047 27.0629 32.439 24.6973 29.5312 24.6973C26.6235 24.6973 24.2578 27.0629 24.2578 29.9707C24.2578 32.8785 26.6235 35.2441 29.5312 35.2441C32.439 35.2441 34.8047 32.8785 34.8047 29.9707ZM31.2891 29.9707C31.2891 30.94 30.5005 31.7285 29.5312 31.7285C28.562 31.7285 27.7734 30.94 27.7734 29.9707C27.7734 29.0014 28.562 28.2129 29.5312 28.2129C30.5005 28.2129 31.2891 29.0014 31.2891 29.9707ZM20.7422 15.0293C20.7422 12.1215 18.3765 9.75586 15.4688 9.75586C12.561 9.75586 10.1953 12.1215 10.1953 15.0293C10.1953 17.9371 12.561 20.3027 15.4688 20.3027C18.3765 20.3027 20.7422 17.9371 20.7422 15.0293ZM17.2266 15.0293C17.2266 15.9986 16.438 16.7871 15.4688 16.7871C14.4995 16.7871 13.7109 15.9986 13.7109 15.0293C13.7109 14.06 14.4995 13.2715 15.4688 13.2715C16.438 13.2715 17.2266 14.06 17.2266 15.0293ZM38.41 38.4099C42.6596 34.1602 45 28.51 45 22.5C45 20.5962 44.7615 18.7041 44.2911 16.8763C44.0491 15.9361 43.0905 15.37 42.1506 15.6121C41.2104 15.8541 40.6444 16.8124 40.8864 17.7526C41.2832 19.2943 41.4844 20.8916 41.4844 22.5C41.4844 32.968 32.968 41.4844 22.5 41.4844C12.032 41.4844 3.51562 32.968 3.51562 22.5C3.51562 12.032 12.032 3.51562 22.5 3.51562C24.1342 3.51562 25.7585 3.72419 27.3277 4.13552C28.267 4.38152 29.2277 3.8199 29.4738 2.88079C29.7199 1.94168 29.1582 0.980859 28.219 0.734766C26.3591 0.247236 24.4349 0 22.5 0C16.49 0 10.8398 2.34044 6.59004 6.59004C2.34044 10.8398 0 16.49 0 22.5C0 28.51 2.34044 34.1602 6.59004 38.4099C10.8398 42.6596 16.49 45 22.5 45C28.51 45 34.1602 42.6596 38.41 38.4099Z" fill="#0088EB"/>
</g>
<defs>
<clipPath id="clip0">
<rect width="45" height="45" fill="white"/>
</clipPath>
</defs>
</svg>
