<svg width="163" height="28" viewBox="0 0 163 28" fill="none" xmlns="http://www.w3.org/2000/svg">
<path d="M63.9 22.16C62.0333 22.16 60.58 21.6267 59.54 20.56C58.5 19.4933 57.98 17.96 57.98 15.96V8H59.98V15.88C59.98 18.88 61.2933 20.38 63.92 20.38C65.2 20.38 66.18 20.0133 66.86 19.28C67.54 18.5333 67.88 17.4 67.88 15.88V8H69.82V15.96C69.82 17.9733 69.3 19.5133 68.26 20.58C67.22 21.6333 65.7667 22.16 63.9 22.16ZM84.7603 8V22H83.1203L74.7203 11.56V22H72.7203V8H74.3603L82.7603 18.44V8H84.7603ZM87.7508 8H89.7508V22H87.7508V8ZM91.7822 15.68H97.1622V17.34H91.7822V15.68ZM101.314 9.74H96.5144V8H108.094V9.74H103.294V22H101.314V9.74ZM118.433 22L115.413 17.7C115.039 17.7267 114.746 17.74 114.533 17.74H111.073V22H109.073V8H114.533C116.346 8 117.773 8.43333 118.813 9.3C119.853 10.1667 120.373 11.36 120.373 12.88C120.373 13.96 120.106 14.88 119.573 15.64C119.039 16.4 118.279 16.9533 117.293 17.3L120.613 22H118.433ZM114.473 16.04C115.739 16.04 116.706 15.7667 117.373 15.22C118.039 14.6733 118.373 13.8933 118.373 12.88C118.373 11.8667 118.039 11.0933 117.373 10.56C116.706 10.0133 115.739 9.74 114.473 9.74H111.073V16.04H114.473ZM131.324 18.5H123.884L122.344 22H120.284L126.624 8H128.604L134.964 22H132.864L131.324 18.5ZM130.624 16.9L127.604 10.04L124.584 16.9H130.624ZM135.852 8H141.752C143.232 8 144.546 8.29333 145.692 8.88C146.839 9.46667 147.726 10.2933 148.352 11.36C148.992 12.4133 149.312 13.6267 149.312 15C149.312 16.3733 148.992 17.5933 148.352 18.66C147.726 19.7133 146.839 20.5333 145.692 21.12C144.546 21.7067 143.232 22 141.752 22H135.852V8ZM141.632 20.26C142.766 20.26 143.759 20.04 144.612 19.6C145.479 19.16 146.146 18.5467 146.612 17.76C147.079 16.96 147.312 16.04 147.312 15C147.312 13.96 147.079 13.0467 146.612 12.26C146.146 11.46 145.479 10.84 144.612 10.4C143.759 9.96 142.766 9.74 141.632 9.74H137.852V20.26H141.632ZM161.336 20.26V22H151.176V8H161.056V9.74H153.176V14.04H160.196V15.74H153.176V20.26H161.336Z" fill="#0088EB"/>
<path d="M40.6452 1.2C39.8323 0.4 38.8839 0 37.8677 0H34.9548C34.2774 0 33.6 0.2 32.9903 0.533333C32.1097 1.06667 31.5677 1.73333 31.229 2.6C31.0935 3 30.9581 3.53333 30.9581 4.26667V15.6C30.9581 16.0667 30.5516 16.4667 30.0774 16.4667C29.6032 16.4667 29.1968 16.0667 29.1968 15.6V4.4C29.1968 3.53333 29.2645 2.93333 29.4 2.53333C29.4677 2.2 29.6032 1.93333 29.8064 1.66667C30.2806 0.866667 30.8903 0.333333 31.7032 0.0666667H31.6355C31.0258 0.0666667 30.4839 0.2 29.9419 0.4C28.4516 1 27.6387 2.26667 27.6387 4.13333V17.3333C27.6387 17.8 27.2323 18.2 26.7581 18.2C26.2839 18.2 25.8774 17.8 25.8774 17.3333V4.06667C25.8774 2.46667 26.3516 1.26667 27.3677 0.466667C27.9097 0.2 28.2484 0.0666667 28.4516 0H19.0355C18.0194 0 17.1387 0.4 16.3258 1.13333C15.5129 2 15.1065 2.93333 15.1065 4V4.06667C15.1065 4.33333 15.1065 4.53333 15.1742 4.8V16.4667C15.1742 17.4 14.8355 18.2 14.2258 18.9333C13.4806 19.6667 12.6 20.0667 11.6516 20.0667C10.9065 20.0667 10.1613 19.8 9.48387 19.3333C8.53548 18.6 8.12903 17.6 8.12903 16.4667V9.8V4.06667C8.12903 2.86667 7.65484 1.8 6.70645 1C5.82581 0.4 5.0129 0.0666667 4.06452 0.0666667H3.99677C3.25161 0.0666667 2.50645 0.266667 1.76129 0.733333C1.55806 0.866667 1.35484 1.06667 1.01613 1.4C0.33871 2.2 0 3.06667 0 4.06667V9.86667V16.5333C0 18.5333 0.474194 20.4 1.49032 22.2V12C1.49032 11.5333 1.89677 11.1333 2.37097 11.1333C2.84516 11.1333 3.25161 11.5333 3.25161 12V20.1333C3.25161 21.6667 3.45484 23.0667 3.92903 24.4C4.06452 24.8667 4.26774 25.2667 4.53871 25.6C4.60645 25.7333 4.80968 25.9333 5.0129 26.1333C4.80968 25.5333 4.74194 24.4667 4.74194 23V22.6667C4.74194 22.3333 4.74194 21.7333 4.74194 20.7333V10.7333C4.74194 10.2667 5.14839 9.86667 5.62258 9.86667C6.09677 9.86667 6.50323 10.2667 6.50323 10.7333V22.7333C6.50323 23.8 6.84193 24.7333 7.5871 25.7333C7.79032 26 8.06129 26.2667 8.4 26.6C9.55161 27.5333 10.9742 28 12.5323 28H12.6677C14.0226 28 15.4452 27.6 16.8677 26.8667C17.4097 26.6 17.9516 26.2 18.4935 25.8C18.7645 25.6 19.2387 25.2 19.9161 24.5333C20.3903 24 20.729 23.5333 21 23.2C22.4226 21.1333 23.1 18.9333 23.1 16.6V8H24.3871V18.1333V24.2C24.3871 24.4667 24.4548 24.6 24.4548 24.7333C24.4548 25 24.5903 25.3333 24.7935 25.8C24.929 26.1333 25.2 26.4667 25.5387 26.8667C26.3516 27.6 27.3 28 28.2484 28H28.3161C29.2645 28 30.1452 27.6667 30.9581 27C31.8387 26.2 32.3129 25.1333 32.3129 24V18.2V8H37.7323C38.2064 8 38.6806 7.93333 39.1548 7.73333C39.5613 7.6 39.9677 7.26667 40.4419 6.93333C41.2548 6.06667 41.6613 5.13333 41.6613 4.06667V3.93333C41.8645 2.93333 41.4581 2 40.6452 1.2ZM8.06129 22.3333V20.1333C8.06129 20.1333 8.12903 20.1333 8.19677 20.2C9.2129 21.1333 10.2968 21.5333 11.5839 21.5333H11.6516C12.6 21.5333 13.5484 21.2667 14.429 20.6667C14.6323 20.5333 14.8355 20.3333 15.1065 20.1333C16.1903 19.0667 16.6645 17.8667 16.6645 16.4667V4.6C16.5968 4.4 16.5968 4.2 16.5968 4C16.5968 3.53333 16.7323 3.06667 17.0032 2.66667C17.5452 1.86667 18.2903 1.46667 19.171 1.46667H25.2677C25.0645 1.73333 24.929 2 24.7935 2.26667C24.5903 2.73333 24.5226 3.06667 24.5226 3.2H19.3064C18.8323 3.2 18.4258 3.6 18.4258 4.06667V16.4C18.4258 17.9333 17.9516 19.3333 17.071 20.5333C16.9355 20.7333 16.6645 21 16.3935 21.3333C15.9871 21.6667 15.6484 21.9333 15.3774 22.1333C14.0903 23 12.871 23.3333 11.6516 23.3333H11.5161C10.2968 23.3333 9.14516 23 8.06129 22.3333ZM21.6774 6.53333V16.5333C21.6774 18.4 21.2032 20.0667 20.2548 21.6667C19.9839 22.2 19.5097 22.8 18.9 23.4667C18.3581 24 18.0194 24.3333 17.7484 24.5333C17.1387 25 16.6645 25.3333 16.2581 25.5333C15.0387 26.2 13.8194 26.5333 12.6677 26.5333H12.6C11.8548 26.5333 11.1774 26.4 10.5677 26.2C9.55161 25.8 8.80645 25.1333 8.4 24.2667C9.48387 24.6667 10.5 24.8667 11.5161 24.8667C13.0742 24.8667 14.4968 24.4667 15.8516 23.6667C16.2581 23.4667 16.7323 23.0667 17.3419 22.5333C17.8161 22.0667 18.0871 21.7333 18.2226 21.5333C19.3064 20 19.9161 18.4 19.9161 16.6V4.73333H24.4548V6.53333H21.6774ZM39.9 5.46667C39.3581 6.2 38.6806 6.53333 37.8 6.53333H32.4484V4.73333H37.8C37.8677 4.73333 37.9355 4.73333 38.0032 4.66667C38.3419 4.53333 38.4774 4.26667 38.4774 4C38.4774 3.93333 38.4774 3.86667 38.4774 3.73333C38.3419 3.4 38.071 3.2 37.8 3.2H32.5839C32.6516 3 32.7871 2.8 32.8548 2.66667C33.3968 1.86667 34.0742 1.46667 35.0226 1.46667H37.7323C38.3419 1.46667 38.8839 1.66667 39.3581 2C39.9677 2.53333 40.3064 3.2 40.3064 3.93333C40.3064 4.53333 40.171 5 39.9 5.46667Z" fill="#0088EB"/>
</svg>
