<svg width="57" height="42" viewBox="0 0 57 42" fill="none" xmlns="http://www.w3.org/2000/svg">
<path d="M9.91072 37.4929C9.7558 37.3442 9.55661 37.2168 9.33529 37.1318C9.09185 37.0468 8.84842 37.0044 8.60497 37.0044C8.45005 37.0044 8.31725 37.0256 8.16233 37.0468C8.00741 37.0681 7.8525 37.1106 7.71971 37.1743C7.58692 37.238 7.45413 37.323 7.32134 37.408C7.18856 37.5142 7.0779 37.6416 6.98937 37.7903C6.85659 37.5354 6.63527 37.3442 6.36969 37.2168C6.08198 37.0681 5.77214 37.0044 5.46231 37.0044C5.35165 37.0044 5.21887 37.0043 5.10821 37.0256C4.97542 37.0468 4.86476 37.0893 4.75411 37.1318C4.62132 37.1743 4.51066 37.238 4.4 37.323C4.28935 37.408 4.20082 37.5142 4.1123 37.6416V37.1106H3.16064V41.5077H4.13442V39.0648C4.13442 38.8949 4.15656 38.725 4.22295 38.5763C4.28935 38.4488 4.35574 38.3214 4.46639 38.2152C4.55492 38.1089 4.68771 38.0452 4.8205 38.0027C4.95328 37.9602 5.1082 37.9178 5.26312 37.9178C5.55083 37.8965 5.81641 38.0027 6.01559 38.2152C6.21477 38.4488 6.3033 38.7675 6.28117 39.0648V41.5077H7.25495V39.0648C7.25495 38.8949 7.27708 38.725 7.34347 38.5763C7.40986 38.4488 7.47626 38.3214 7.58692 38.2152C7.67544 38.1089 7.80823 38.0452 7.94102 38.0027C8.07381 37.9602 8.22873 37.9178 8.38365 37.9178C8.67136 37.8965 8.93693 38.0027 9.13612 38.2152C9.33531 38.4488 9.42382 38.7675 9.40169 39.0648V41.5077H10.3755V38.7462C10.3755 38.5125 10.3312 38.2789 10.2427 38.0452C10.1984 37.8328 10.0878 37.6416 9.91072 37.4929Z" fill="white"/>
<path d="M15.0229 37.6417C14.868 37.4506 14.6688 37.2806 14.4254 37.1744C14.1598 37.047 13.8721 36.9832 13.5844 37.0045C13.2745 37.0045 12.9647 37.0682 12.677 37.1744C12.3893 37.2806 12.1458 37.4506 11.9467 37.663C11.7475 37.8754 11.5704 38.1091 11.4598 38.3852C11.3491 38.6826 11.2827 39.0012 11.2827 39.3199C11.2827 39.6385 11.3491 39.9571 11.4598 40.2545C11.5704 40.5307 11.7253 40.7643 11.9467 40.9768C12.1458 41.1892 12.4114 41.3591 12.677 41.4653C12.9647 41.5715 13.2745 41.6353 13.5844 41.6353C13.8721 41.6353 14.1598 41.5928 14.4254 41.4653C14.6688 41.3591 14.868 41.1892 15.0229 40.998V41.5291H16.0188V37.1319H15.0229V37.6417ZM15.0008 39.8722C14.9344 40.0421 14.8459 40.1908 14.7131 40.3183C14.6024 40.4457 14.4475 40.5519 14.2704 40.6156C14.0934 40.6794 13.9163 40.7219 13.7172 40.7219C13.518 40.7219 13.3188 40.6794 13.1417 40.6156C12.8098 40.4882 12.5442 40.212 12.4335 39.8722C12.3229 39.511 12.3229 39.1287 12.4335 38.7676C12.4999 38.6189 12.5885 38.4702 12.6991 38.3215C12.8098 38.194 12.9647 38.0878 13.1417 38.0241C13.3188 37.9391 13.518 37.9179 13.7172 37.9179C13.9163 37.9179 14.0934 37.9604 14.2704 38.0241C14.4475 38.0878 14.5803 38.194 14.7131 38.3215C14.8237 38.4489 14.9344 38.5976 15.0008 38.7676C15.1557 39.1287 15.1557 39.511 15.0008 39.8722Z" fill="white"/>
<path d="M20.6221 39.2986C20.268 39.0649 19.8696 38.9162 19.4491 38.8737L18.9844 38.81C18.8958 38.7888 18.7852 38.7675 18.6967 38.7675C18.6081 38.7463 18.5196 38.725 18.4532 38.6826C18.3868 38.6401 18.3426 38.5976 18.2983 38.5551C18.254 38.5126 18.2319 38.4276 18.2319 38.3639C18.2319 38.2152 18.3204 38.0665 18.4532 37.9816C18.6524 37.8753 18.8737 37.8116 19.095 37.8329C19.2278 37.8329 19.3827 37.8541 19.5155 37.8753C19.6483 37.8966 19.7811 37.9391 19.9139 37.9603C20.0245 38.0028 20.1352 38.0453 20.2459 38.0878C20.3344 38.1303 20.4229 38.1727 20.5114 38.2152L20.9319 37.4717C20.6664 37.323 20.3786 37.1956 20.0909 37.1319C19.759 37.0469 19.427 37.0044 19.0729 37.0044C18.8073 37.0044 18.5417 37.0469 18.2762 37.1106C18.0549 37.1531 17.8557 37.2593 17.6786 37.3868C17.5237 37.5142 17.3909 37.6629 17.3024 37.8329C17.2139 38.024 17.1696 38.2152 17.1696 38.4276C17.1475 38.7463 17.3024 39.0649 17.568 39.2773C17.8999 39.511 18.2983 39.6597 18.7188 39.7022L19.2057 39.7659C19.4049 39.7871 19.604 39.8509 19.8032 39.9358C19.9139 39.9996 20.0024 40.127 20.0024 40.2545C20.0024 40.4244 19.8918 40.5731 19.7368 40.6368C19.4934 40.743 19.2278 40.8068 18.9622 40.7855C18.7852 40.7855 18.6303 40.7643 18.4532 40.743C18.3204 40.7218 18.1876 40.6793 18.0549 40.6368C17.9442 40.5944 17.8335 40.5519 17.7229 40.4881C17.6344 40.4244 17.5458 40.3819 17.4573 40.3182L16.9926 41.0404C17.1475 41.1679 17.3245 41.2741 17.5237 41.3378C17.7008 41.4016 17.8778 41.4653 18.0549 41.5078C18.2098 41.5503 18.3868 41.5715 18.5417 41.5927C18.6745 41.614 18.8295 41.614 18.9622 41.614C19.2499 41.614 19.5598 41.5715 19.8475 41.5078C20.0909 41.444 20.3122 41.3591 20.5114 41.2104C20.8655 40.9767 21.0647 40.5944 21.0426 40.1908C21.0647 39.8296 20.9098 39.511 20.6221 39.2986Z" fill="white"/>
<path d="M29.9837 37.6417C29.7845 37.4293 29.5632 37.2806 29.2976 37.1744C29.0099 37.0681 28.7222 37.0044 28.4124 37.0044C28.1026 37.0044 27.7706 37.0681 27.4829 37.1744C27.2173 37.2806 26.9738 37.4505 26.7525 37.6417C26.5534 37.8541 26.3984 38.0878 26.2878 38.3639C26.1771 38.6613 26.1107 38.9799 26.1107 39.2986C26.1107 39.6172 26.1771 39.9571 26.2878 40.2545C26.3984 40.5306 26.5533 40.7855 26.7747 40.9767C26.9738 41.1891 27.2394 41.3378 27.505 41.444C27.8148 41.5503 28.1247 41.614 28.4567 41.614C28.7886 41.614 29.1206 41.5715 29.4526 41.4865C29.7845 41.3803 30.0944 41.2316 30.3378 40.998L29.8509 40.3182C29.6518 40.4669 29.4304 40.5731 29.2091 40.6581C28.9878 40.743 28.7665 40.7855 28.523 40.7855C28.3681 40.7855 28.2132 40.7643 28.0583 40.7218C27.9034 40.6793 27.7706 40.6156 27.6599 40.5306C27.5493 40.4244 27.4386 40.3182 27.3501 40.1908C27.2616 40.0421 27.1952 39.8509 27.173 39.6809H30.5591C30.5591 39.6172 30.5813 39.5747 30.5813 39.511V39.3198C30.5813 39.0012 30.537 38.6826 30.4263 38.3852C30.3378 38.109 30.1829 37.8541 29.9837 37.6417ZM27.173 38.9375C27.1952 38.7888 27.2394 38.6401 27.3058 38.4914C27.3722 38.3639 27.4607 38.2577 27.5493 38.1515C27.6378 38.0453 27.7706 37.9816 27.9034 37.9391C28.0583 37.8966 28.2132 37.8541 28.3681 37.8541C28.6558 37.8329 28.9435 37.9391 29.1427 38.1303C29.364 38.3427 29.4968 38.6401 29.519 38.9375H27.173Z" fill="white"/>
<path d="M43.2404 37.6417C43.0855 37.4506 42.8863 37.2806 42.6429 37.1744C42.3773 37.047 42.0896 36.9832 41.8019 37.0045C41.4921 37.0045 41.1822 37.0682 40.8945 37.1744C40.6068 37.2806 40.3634 37.4506 40.1642 37.663C39.965 37.8754 39.788 38.1091 39.6773 38.3852C39.5666 38.6826 39.5002 39.0012 39.5002 39.3199C39.5002 39.6385 39.5666 39.9571 39.6773 40.2545C39.788 40.5307 39.9429 40.7643 40.1642 40.9768C40.3634 41.1892 40.629 41.3591 40.8945 41.4653C41.1822 41.5715 41.4921 41.6353 41.8019 41.6353C42.0896 41.6353 42.3773 41.5928 42.6429 41.4653C42.8863 41.3591 43.0855 41.1892 43.2404 40.998V41.5291H44.2364V37.1319H43.2404V37.6417ZM43.2183 39.8722C43.1519 40.0421 43.0634 40.1908 42.9306 40.3183C42.8199 40.4457 42.665 40.5519 42.488 40.6156C42.3109 40.6794 42.1339 40.7219 41.9347 40.7219C41.7355 40.7219 41.5363 40.6794 41.3593 40.6156C41.2044 40.5519 41.0494 40.4457 40.9167 40.3183C40.7839 40.1908 40.6953 40.0421 40.6511 39.8722C40.5404 39.511 40.5404 39.1287 40.6511 38.7676C40.7175 38.5976 40.806 38.4489 40.9167 38.3215C41.0273 38.194 41.1822 38.0878 41.3593 38.0241C41.5363 37.9391 41.7355 37.9179 41.9347 37.9179C42.1339 37.9179 42.3109 37.9604 42.488 38.0241C42.665 38.0878 42.7978 38.194 42.9306 38.3215C43.0413 38.4489 43.1519 38.5976 43.2183 38.7676C43.3732 39.1074 43.3732 39.511 43.2183 39.8722Z" fill="white"/>
<path d="M24.9155 40.6364C24.7606 40.7002 24.6057 40.7214 24.4508 40.7214C24.3622 40.7214 24.2516 40.7002 24.1631 40.6789C24.0745 40.6577 24.0081 40.594 23.9418 40.5302C23.8754 40.4665 23.809 40.3603 23.7868 40.2753C23.7426 40.1479 23.7204 40.0204 23.7204 39.893V37.9812H25.3139V37.1102H23.7204V35.772H22.7245V37.1102H21.8171V37.9812H22.7245V39.9142C22.7245 40.4877 22.8794 40.9338 23.1672 41.21C23.4991 41.5074 23.9418 41.6561 24.3844 41.6348C24.65 41.6348 24.9155 41.5923 25.159 41.5074C25.3139 41.4436 25.4467 41.3799 25.5795 41.3162L25.2475 40.509C25.1369 40.5515 25.0262 40.5727 24.9155 40.6364Z" fill="white"/>
<path d="M33.923 37.0044C33.6575 37.0044 33.414 37.0468 33.1706 37.1531C32.9271 37.3018 32.7501 37.4717 32.5951 37.7054V37.1318H31.6877V41.529H32.5951V39.1073C32.5951 38.9374 32.6173 38.7675 32.6837 38.5975C32.7279 38.4701 32.7943 38.3426 32.905 38.2364C32.9935 38.1302 33.1263 38.0452 33.2591 38.0027C33.3919 37.9603 33.5468 37.9178 33.7017 37.9178C33.8345 37.9178 33.9673 37.939 34.1001 37.9603C34.1665 37.9815 34.2329 37.9815 34.2993 38.0027L34.587 37.0893L34.3435 37.0256C34.2107 37.0044 34.0779 36.9831 33.923 37.0044Z" fill="white"/>
<path d="M47.7995 37.0044C47.5339 37.0044 47.2905 37.0468 47.047 37.1531C46.8036 37.3018 46.6265 37.4717 46.4716 37.7054V37.1318H45.5642V41.529H46.4716V39.1073C46.4716 38.9374 46.4937 38.7675 46.5601 38.5975C46.6044 38.4701 46.6708 38.3426 46.7814 38.2364C46.87 38.1302 47.0027 38.0452 47.1355 38.0027C47.2683 37.9603 47.4232 37.9178 47.5782 37.9178C47.7109 37.9178 47.8437 37.939 47.9765 37.9603C48.0429 37.9815 48.1093 37.9815 48.1757 38.0027L48.4634 37.0893L48.22 37.0256C48.0872 37.0044 47.9544 36.9831 47.7995 37.0044Z" fill="white"/>
<path d="M52.4692 35.3262V37.6417C52.3143 37.4505 52.1151 37.2805 51.8717 37.1743C51.6061 37.0469 51.3184 36.9831 51.0307 37.0044C50.7208 37.0044 50.411 37.0681 50.1233 37.1743C49.8356 37.2805 49.5921 37.4505 49.3929 37.6629C49.1938 37.8753 49.0167 38.109 48.9061 38.3851C48.7954 38.6825 48.729 39.0012 48.729 39.3198C48.729 39.6384 48.7954 39.9571 48.9061 40.2544C49.0167 40.5306 49.1716 40.7643 49.3929 40.9767C49.5921 41.1891 49.8577 41.359 50.1233 41.4652C50.411 41.5715 50.7208 41.6352 51.0307 41.6352C51.3184 41.6352 51.6061 41.5927 51.8717 41.4652C52.1151 41.359 52.3143 41.1891 52.4692 40.9979V41.529H53.4651V35.3475H52.4692V35.3262ZM52.4471 39.8721C52.3807 40.042 52.2922 40.1907 52.1594 40.3182C52.0487 40.4456 51.8938 40.5518 51.7167 40.6156C51.5397 40.6793 51.3626 40.7218 51.1635 40.7218C50.9643 40.7218 50.7651 40.6793 50.588 40.6156C50.2561 40.4881 49.9905 40.212 49.8798 39.8721C49.7692 39.511 49.7692 39.1286 49.8798 38.7675C49.9462 38.5976 50.0348 38.4489 50.1454 38.3214C50.2561 38.1939 50.411 38.0877 50.588 38.024C50.7651 37.939 50.9643 37.9178 51.1635 37.9178C51.3626 37.9178 51.5397 37.9603 51.7167 38.024C51.8938 38.0877 52.0266 38.1939 52.1594 38.3214C52.27 38.4489 52.3807 38.5976 52.4471 38.7675C52.602 39.1074 52.602 39.511 52.4471 39.8721Z" fill="white"/>
<path d="M36.3132 38.3001C36.446 38.1727 36.6009 38.0665 36.778 38.0027C36.955 37.939 37.1542 37.8965 37.3534 37.8965C37.5747 37.8965 37.7739 37.939 37.9731 38.0027C38.1501 38.0665 38.3272 38.1514 38.46 38.2789L38.9468 37.5142C38.7698 37.3655 38.5485 37.2593 38.3272 37.1743C38.0173 37.0468 37.6854 37.0044 37.3534 37.0044C37.0214 37.0044 36.6894 37.0681 36.3796 37.1743C36.0919 37.2805 35.8263 37.4504 35.605 37.6629C35.3837 37.8753 35.2066 38.1089 35.096 38.3851C34.9632 38.6825 34.9189 38.9799 34.9189 39.2985C34.9189 39.6171 34.9853 39.9145 35.096 40.2119C35.2066 40.4881 35.3837 40.7217 35.605 40.9342C35.8263 41.1466 36.0919 41.2953 36.3796 41.4227C36.6894 41.5502 37.0214 41.5927 37.3534 41.5927C37.6854 41.5927 38.0173 41.5289 38.3272 41.4227C38.5485 41.3378 38.7476 41.2316 38.9468 41.0829L38.46 40.3181C38.3272 40.4456 38.1501 40.5518 37.9731 40.5943C37.7739 40.658 37.5747 40.7005 37.3534 40.7005C37.1542 40.7005 36.955 40.658 36.778 40.5943C36.6009 40.5306 36.446 40.4243 36.3132 40.2969C35.8927 39.8721 35.7821 39.256 36.0034 38.7037C36.0919 38.5338 36.2026 38.4063 36.3132 38.3001Z" fill="white"/>
<path d="M55.5676 40.8701C55.634 40.8701 55.7004 40.8914 55.7447 40.9126C55.8111 40.9338 55.8553 40.9763 55.8996 41.0188C55.9439 41.0613 55.9881 41.125 56.0102 41.1675C56.0324 41.2312 56.0545 41.2737 56.0545 41.3374C56.0545 41.4012 56.0324 41.4649 56.0102 41.5074C55.9881 41.5711 55.9439 41.6136 55.8996 41.6561C55.8553 41.6986 55.7889 41.7411 55.7447 41.7623C55.6783 41.7835 55.634 41.8048 55.5676 41.8048C55.5012 41.8048 55.4348 41.7835 55.3684 41.7623C55.302 41.7411 55.2578 41.6986 55.2135 41.6561C55.1692 41.6136 55.125 41.5499 55.1028 41.5074C55.0807 41.4437 55.0586 41.4012 55.0586 41.3374C55.0586 41.2737 55.0807 41.21 55.1028 41.1675C55.125 41.1038 55.1692 41.0613 55.2135 41.0188C55.2578 40.9763 55.3242 40.9338 55.3684 40.9126C55.4348 40.8701 55.5012 40.8701 55.5676 40.8701ZM55.5676 41.6348C55.6119 41.6348 55.6561 41.6348 55.7004 41.6136C55.7447 41.5924 55.7668 41.5711 55.8111 41.5499C55.8332 41.5074 55.8553 41.4861 55.8774 41.4437C55.8996 41.3587 55.8996 41.2737 55.8774 41.1888C55.8553 41.1463 55.8332 41.125 55.8111 41.0825C55.7668 41.0613 55.7447 41.0401 55.7004 41.0188C55.6119 40.9976 55.5233 40.9976 55.4348 41.0188C55.3906 41.0401 55.3684 41.0613 55.3242 41.0825C55.302 41.125 55.2799 41.1463 55.2578 41.1888C55.2356 41.2737 55.2356 41.3587 55.2578 41.4437C55.2799 41.4861 55.302 41.5074 55.3242 41.5499C55.3684 41.5711 55.3906 41.5924 55.4348 41.6136C55.4791 41.6348 55.5234 41.6348 55.5676 41.6348ZM55.6119 41.1038C55.6561 41.1038 55.7004 41.125 55.7447 41.1463C55.7668 41.1675 55.7889 41.21 55.7889 41.2525C55.7889 41.295 55.7889 41.3162 55.7668 41.3374C55.7447 41.3587 55.7225 41.3799 55.6783 41.3799L55.8111 41.5286H55.634L55.5233 41.3799H55.5012V41.5286H55.3906V41.1038H55.6119ZM55.5233 41.21V41.2737H55.6561L55.6783 41.2525C55.6783 41.2312 55.6783 41.2312 55.6561 41.2312L55.5233 41.21Z" fill="white"/>
<path d="M21.7287 16.5698C21.7287 11.5142 24.1411 6.73464 28.2796 3.59079C20.7992 -2.08088 9.95484 -0.870075 4.02364 6.28855C-1.90757 13.4472 -0.623944 23.8771 6.83432 29.5701C13.1196 34.3496 21.9943 34.3496 28.2575 29.5701C24.141 26.4262 21.7287 21.6255 21.7287 16.5698Z" fill="#EB001B"/>
<path d="M21.7288 16.5693C21.7288 21.6249 24.1411 26.4044 28.2796 29.5483C35.76 23.8766 37.0215 13.4679 31.1346 6.30933C30.2936 5.2897 29.3419 4.37629 28.3018 3.59033C24.1411 6.71293 21.7288 11.4924 21.7288 16.5693Z" fill="#FF6610"/>
<path d="M38.9912 0.000261304C35.0961 0.000261304 31.3338 1.25355 28.2797 3.56895C35.7379 9.24063 37.0216 19.6281 31.1125 26.8079C30.2715 27.8276 29.3198 28.741 28.2797 29.5269C35.7379 35.2199 46.5823 34.0091 52.5135 26.8504C58.4447 19.6918 57.1832 9.28311 49.725 3.5902C46.693 1.25355 42.9085 -0.0209809 38.9912 0.000261304Z" fill="#F79E1B"/>
</svg>
