<svg width="47" height="47" viewBox="0 0 47 47" fill="none" xmlns="http://www.w3.org/2000/svg">
<path d="M23.5 11.1074C16.6667 11.1074 11.1074 16.6667 11.1074 23.5C11.1074 30.3333 16.6667 35.8926 23.5 35.8926C30.3333 35.8926 35.8926 30.3333 35.8926 23.5C35.8926 16.6667 30.3333 11.1074 23.5 11.1074ZM13.8613 23.5C13.8613 18.6527 17.4583 14.6303 22.123 13.9601V16.8523C20.5205 17.4207 19.3691 18.9512 19.3691 20.7462C19.3691 23.0239 21.2222 24.877 23.5 24.877C24.2593 24.877 24.877 25.4947 24.877 26.254C24.877 27.0133 24.2593 27.631 23.5 27.631C22.7407 27.631 22.123 27.0133 22.123 26.254H19.3691C19.3691 28.049 20.5204 29.5795 22.123 30.1479V33.0398C17.4583 32.3697 13.8613 28.3473 13.8613 23.5ZM24.877 33.0399V30.1481C26.4796 29.5797 27.6309 28.0492 27.6309 26.2541C27.6309 23.9763 25.7778 22.1232 23.5 22.1232C22.7407 22.1232 22.123 21.5055 22.123 20.7463C22.123 19.987 22.7407 19.3693 23.5 19.3693C24.2593 19.3693 24.877 19.987 24.877 20.7462H27.6309C27.6309 18.9512 26.4795 17.4207 24.877 16.8523V13.9603C29.5417 14.6305 33.1387 18.6529 33.1387 23.5002C33.1387 28.3475 29.5417 32.3697 24.877 33.0399Z" fill="#0088EB"/>
<path d="M0.973572 13.458L13.4579 13.458L13.4579 0.973602H10.704L10.704 8.75678L1.94717 4.76837e-06L-2.57492e-05 1.9472L8.75675 10.7041L0.973572 10.7041V13.458Z" fill="#0088EB"/>
<path d="M36.2959 38.2432L45.0528 47L47 45.0528L38.2432 36.2959H46.0264V33.542H33.542V46.0264H36.2959V38.2432Z" fill="#0088EB"/>
<path d="M46.0264 10.7041H38.2432L47 1.9472L45.0528 4.76837e-06L36.2959 8.75678V0.973602H33.542V13.458L46.0264 13.458V10.7041Z" fill="#0088EB"/>
<path d="M1.94717 47L10.704 38.2432V46.0264H13.4579L13.4579 33.542H0.973572V36.2959H8.75675L-2.57492e-05 45.0528L1.94717 47Z" fill="#0088EB"/>
</svg>
