<svg width="36" height="36" viewBox="0 0 36 36" fill="none" xmlns="http://www.w3.org/2000/svg">
<g clip-path="url(#clip0)">
<path d="M33.2922 9.76771L33.2911 9.7397C33.2754 9.3939 33.265 9.02806 33.2587 8.62102C33.2293 6.63607 31.6514 4.99416 29.6661 4.8832C25.5271 4.65222 22.3251 3.30255 19.5892 0.635901L19.5659 0.613653C18.6735 -0.204551 17.3274 -0.204551 16.4348 0.613653L16.4114 0.635901C13.6756 3.30255 10.4736 4.65222 6.33454 4.88348C4.34959 4.99416 2.77141 6.63607 2.74202 8.62129C2.73598 9.02559 2.72527 9.39143 2.70961 9.7397L2.70796 9.80479C2.62749 14.0255 2.52751 19.2783 4.28477 24.0461C5.25102 26.6679 6.71439 28.947 8.63397 30.8205C10.8202 32.954 13.6838 34.6478 17.1451 35.8547C17.2577 35.894 17.3747 35.9258 17.4939 35.9497C17.662 35.9832 17.8312 36 18.0003 36C18.1695 36 18.339 35.9832 18.5068 35.9497C18.626 35.9258 18.7438 35.8937 18.857 35.8541C22.3141 34.6451 25.1747 32.9504 27.359 30.8172C29.2778 28.9432 30.7411 26.6635 31.7082 24.0411C33.4721 19.259 33.3724 13.9963 33.2922 9.76771ZM29.7263 23.3102C27.8729 28.3354 24.0895 31.7864 18.1599 33.8601C18.1388 33.8673 18.1162 33.8736 18.0929 33.8782C18.0317 33.8903 17.9693 33.8903 17.9072 33.878C17.8842 33.8733 17.8616 33.8673 17.8408 33.8601C11.9049 31.7903 8.11899 28.3411 6.26698 23.3157C4.64732 18.9209 4.73906 14.0991 4.82008 9.84517L4.82063 9.82154C4.83711 9.45598 4.8481 9.0731 4.85414 8.65233C4.86732 7.77095 5.56935 7.04174 6.45237 6.99257C8.79465 6.86184 10.8524 6.4092 12.7431 5.60885C14.6314 4.8096 16.3085 3.68295 17.8696 2.16464C17.949 2.09763 18.052 2.09735 18.1311 2.16464C19.6925 3.68295 21.3696 4.8096 23.2576 5.60885C25.1483 6.4092 27.206 6.86184 29.5486 6.99257C30.4316 7.04174 31.1336 7.77095 31.1465 8.6526C31.1529 9.07557 31.1638 9.45845 31.1803 9.82154C31.2611 14.0804 31.3506 18.9061 29.7263 23.3102Z" fill="#0088EB"/>
<path d="M17.9999 9.02881C13.0528 9.02881 9.0282 13.0536 9.0282 18.0005C9.0282 22.9477 13.0528 26.9725 17.9999 26.9725C22.9468 26.9725 26.9716 22.9477 26.9716 18.0005C26.9716 13.0536 22.9468 9.02881 17.9999 9.02881ZM17.9999 24.8598C14.2176 24.8598 11.1406 21.7828 11.1406 18.0005C11.1406 14.2182 14.2176 11.1412 17.9999 11.1412C21.782 11.1412 24.8589 14.2182 24.8589 18.0005C24.8589 21.7828 21.782 24.8598 17.9999 24.8598Z" fill="#0088EB"/>
<path d="M20.5784 15.2154L16.4113 19.3825L15.2802 18.2514C14.8677 17.8389 14.1989 17.8389 13.7864 18.2514C13.3741 18.664 13.3741 19.3328 13.7864 19.745L15.6645 21.6231C15.8708 21.8294 16.141 21.9324 16.4113 21.9324C16.6815 21.9324 16.9518 21.8294 17.1581 21.6231L22.0723 16.709C22.4845 16.2964 22.4845 15.6276 22.0723 15.2154C21.6597 14.8026 20.9909 14.8026 20.5784 15.2154Z" fill="#0088EB"/>
</g>
<defs>
<clipPath id="clip0">
<rect width="36" height="36" fill="white"/>
</clipPath>
</defs>
</svg>
