<svg width="48" height="48" viewBox="0 0 48 48" fill="none" xmlns="http://www.w3.org/2000/svg">
<path d="M28.5 9H10.5C9.672 9 9 9.672 9 10.5C9 11.328 9.672 12 10.5 12H28.5C29.328 12 30 11.328 30 10.5C30 9.672 29.328 9 28.5 9Z" fill="#0088EB"/>
<path d="M22.5 15H10.5C9.672 15 9 15.672 9 16.5C9 17.328 9.672 18 10.5 18H22.5C23.328 18 24 17.328 24 16.5C24 15.672 23.328 15 22.5 15Z" fill="#0088EB"/>
<path d="M33 0H6C2.691 0 0 2.691 0 6V36C0 36.582 0.336 37.113 0.864 37.359C1.065 37.452 1.284 37.5 1.5 37.5C1.845 37.5 2.187 37.38 2.46 37.152L11.043 30H33C36.309 30 39 27.309 39 24V6C39 2.691 36.309 0 33 0ZM36 24C36 25.653 34.656 27 33 27H10.5C10.149 27 9.81 27.123 9.54 27.348L3 32.799V6C3 4.347 4.344 3 6 3H33C34.656 3 36 4.347 36 6V24Z" fill="#0088EB"/>
<path d="M42 12C41.172 12 40.5 12.672 40.5 13.5C40.5 14.328 41.172 15 42 15C43.656 15 45 16.347 45 18V43.377L39.936 39.327C39.672 39.117 39.339 39 39 39H18C16.344 39 15 37.653 15 36V34.5C15 33.672 14.328 33 13.5 33C12.672 33 12 33.672 12 34.5V36C12 39.309 14.691 42 18 42H38.472L45.561 47.673C45.834 47.889 46.167 48 46.5 48C46.719 48 46.941 47.952 47.151 47.853C47.67 47.601 48 47.076 48 46.5V18C48 14.691 45.309 12 42 12Z" fill="#0088EB"/>
</svg>
