<svg width="52" height="52" viewBox="0 0 52 52" fill="none" xmlns="http://www.w3.org/2000/svg">
<g clip-path="url(#clip0)">
<path d="M50.6634 16.8938L35.1063 1.33674C33.3242 -0.445347 30.4245 -0.445143 28.6426 1.33674L9.1214 20.8581H4.5705C2.05033 20.8581 0 22.9084 0 25.4286V47.4296C0 49.9498 2.05033 52.0001 4.5705 52.0001H39.5724C42.0926 52.0001 44.1429 49.9498 44.1429 47.4296V29.8779L50.6634 23.3574C52.4455 21.5754 52.4455 18.6759 50.6634 16.8938ZM30.7972 3.49128C31.0943 3.1943 31.4844 3.0457 31.8746 3.0457C32.2647 3.0457 32.6548 3.1943 32.9518 3.49128L40.9679 11.5074L31.6173 20.8581H13.4304L30.7972 3.49128ZM41.0959 47.4296C41.0959 48.2697 40.4125 48.9531 39.5724 48.9531H4.5705C3.73044 48.9531 3.047 48.2697 3.047 47.4296V25.4286C3.047 24.5885 3.73044 23.9051 4.5705 23.9051H39.5724C40.4125 23.9051 41.0959 24.5885 41.0959 25.4286V47.4296ZM40.1924 20.9012C39.9894 20.8736 39.7827 20.8581 39.5724 20.8581H35.9264L43.1225 13.6619L45.2771 15.8165L40.1924 20.9012ZM48.5088 21.203L44.1429 25.5689V25.4286C44.1429 24.2705 43.7091 23.2123 42.9966 22.406L47.4316 17.971L48.5088 19.0482C49.1029 19.6423 49.1029 20.6089 48.5088 21.203Z" fill="#0088EB"/>
<path d="M6.09401 41.2943H11.7634V44.3413H6.09401V41.2943Z" fill="#0088EB"/>
<path d="M14.8559 41.2943H20.5252V44.3413H14.8559V41.2943Z" fill="#0088EB"/>
<path d="M23.6178 41.2943H29.2872V44.3413H23.6178V41.2943Z" fill="#0088EB"/>
<path d="M32.3796 41.2943H38.049V44.3413H32.3796V41.2943Z" fill="#0088EB"/>
<path d="M16.3794 28.5165H6.09401V37.6575H16.3794V28.5165ZM13.3324 34.6105H9.14101V31.5635H13.3324V34.6105Z" fill="#0088EB"/>
</g>
<defs>
<clipPath id="clip0">
<rect width="52" height="52" fill="white"/>
</clipPath>
</defs>
</svg>
