<svg width="68" height="21" viewBox="0 0 68 21" fill="none" xmlns="http://www.w3.org/2000/svg">
<g clip-path="url(#clip0)">
<path d="M29.1158 19.329H23.6763L27.0785 -0.999512H32.5178L29.1158 19.329Z" fill="#00579F"/>
<path d="M48.8347 -0.134532C47.7618 -0.545852 46.06 -1 43.9558 -1C38.5841 -1 34.8014 1.768 34.7782 5.72541C34.7336 8.64518 37.4865 10.2669 39.5455 11.2404C41.65 12.2352 42.3654 12.8846 42.3654 13.7713C42.3439 15.1332 40.6648 15.7609 39.0987 15.7609C36.927 15.7609 35.7634 15.4373 33.995 14.6796L33.2788 14.3548L32.5176 18.9181C33.7934 19.4798 36.1438 19.9782 38.5841 20C44.2917 20 48.0075 17.2749 48.0515 13.0576C48.0732 10.7435 46.6195 8.97027 43.4856 7.52131C41.5831 6.59117 40.4179 5.96398 40.4179 5.01229C40.4402 4.14711 41.4034 3.26094 43.551 3.26094C45.3194 3.21754 46.6187 3.62828 47.6029 4.03932L48.0949 4.25518L48.8347 -0.134532Z" fill="#00579F"/>
<path d="M56.0643 12.1273C56.5122 10.9595 58.236 6.43961 58.236 6.43961C58.2134 6.48301 58.6831 5.2502 58.9517 4.49338L59.3318 6.24501C59.3318 6.24501 60.3619 11.111 60.5856 12.1273C59.7354 12.1273 57.1387 12.1273 56.0643 12.1273ZM62.7787 -0.999512H58.5712C57.2737 -0.999512 56.288 -0.632169 55.7282 0.687156L47.6484 19.3287H53.356C53.356 19.3287 54.2956 16.8197 54.4976 16.2793C55.1237 16.2793 60.676 16.2793 61.4815 16.2793C61.6377 16.993 62.1305 19.3287 62.1305 19.3287H67.167L62.7787 -0.999512Z" fill="#00579F"/>
<path d="M19.1331 -0.999512L13.806 12.8626L13.2239 10.0512C12.239 6.80724 9.15026 3.2827 5.70337 1.53021L10.5828 19.3075H16.3349L24.8849 -0.999512H19.1331Z" fill="#00579F"/>
<path d="M8.85927 3H0.107599L0.0180664 3.41074C6.84492 5.0977 11.3662 9.16405 13.2238 14.0516L11.3213 4.7088C11.0081 3.41046 10.0455 3.04283 8.85927 3Z" fill="#FAA61A"/>
</g>
<defs>
<clipPath id="clip0">
<rect width="68" height="21" fill="white"/>
</clipPath>
</defs>
</svg>
