<svg width="109" height="24" viewBox="0 0 109 24" fill="none" xmlns="http://www.w3.org/2000/svg">
<path d="M96.2196 0C98.1765 0 100.038 0.427952 101.709 1.19348C101.971 1.30632 102.235 1.44137 102.496 1.57654L101.351 2.54516L99.6331 0.856026L96.6736 3.33314L94.931 1.55374L89.4891 6.17075L92.9732 9.79668L91.613 10.9224L95.0504 14.5484L93.6902 15.6737L98.6071 20.8312L101.517 18.3086L104.048 21.0119C103.547 21.3722 102.998 21.7333 102.402 22.0481C100.588 23.0164 98.4869 23.5783 96.2436 23.5783C89.3454 23.5783 83.7374 18.287 83.7374 11.7791C83.7131 5.31506 89.322 0 96.2196 0ZM93.9279 11.0579L96.9114 8.53537L99.5851 11.3504L96.6011 13.8726L93.9279 11.0579ZM96.0527 15.9226L99.012 13.3777L101.709 16.1926L98.7256 18.7151L96.0527 15.9226ZM91.8051 6.26113L94.7877 3.73865L97.4607 6.55368L94.4771 9.07605L91.8051 6.26113ZM97.2696 4.90944L99.4894 3.01778L101.495 5.11232L99.2749 7.02631L97.2696 4.90944ZM101.232 13.58L103.451 11.6882L105.456 13.8046L103.236 15.6976L101.232 13.58ZM103.189 17.8369L105.409 15.9448L107.412 18.0391L105.193 19.9529L103.189 17.8369ZM104.096 8.10742L105.575 6.84612L106.912 8.24293L105.432 9.50377L104.096 8.10742ZM102.187 3.94104L103.666 2.65764L105.003 4.07621L103.522 5.3374L102.187 3.94104ZM105.981 12.2741L107.461 11.013L108.821 12.4093L107.318 13.6702L105.981 12.2741ZM99.3223 9.14363L101.542 7.25186L103.547 9.34592L101.328 11.238L99.3223 9.14363Z" fill="#036CB5"/>
<path d="M16.3866 11.1504H20.0512C19.9717 9.53881 19.155 8.89455 18.291 8.89455C17.3146 8.89455 16.5619 9.616 16.3866 11.1504ZM21.3316 14.0378V15.2048C20.6115 15.6039 19.6517 15.9111 18.4985 15.9111C15.8102 15.9111 14.7058 14.3144 14.7058 11.8888C14.7058 9.55414 15.938 7.86523 18.339 7.86523C20.3392 7.86523 21.5725 9.10971 21.5725 11.6117V12.1798H16.3545C16.3545 14.0217 17.1383 14.8357 18.7876 14.8357C19.6517 14.8357 20.4519 14.5435 21.3316 14.0378Z" fill="#036CB5"/>
<path d="M25.2952 14.6796C25.8075 14.8945 26.3682 14.9263 26.769 14.9263C27.9531 14.9263 28.8485 14.2189 28.8485 11.7324C28.8485 9.78249 28.1123 9.15295 27.0404 9.15295C26.3996 9.15295 25.9357 9.32237 25.2952 9.65949V14.6796ZM25.3121 8.52365C25.7911 8.27881 26.6072 7.95526 27.4718 7.95526C29.4568 7.95526 30.5294 9.27561 30.5294 11.7324C30.5294 14.6036 29.0886 16.0008 26.769 16.0008C25.92 16.0008 24.6075 15.7397 23.6467 15.2473V4.53173L25.3121 4.14844V8.52365Z" fill="#036CB5"/>
<path d="M37.7334 13.4742H37.8135L41.2382 4.8916H43.2239V15.7781H41.4954V7.88577H41.351L38.0853 15.7781H37.0619L33.7954 8.07027H33.6519V15.7781H32.2113V4.8916H34.1485L37.7334 13.4742Z" fill="#036CB5"/>
<path d="M50.2863 11.8884C50.2863 9.81582 49.4066 8.94109 48.3182 8.94109C47.2623 8.94109 46.349 9.81583 46.349 11.8884C46.349 13.992 47.1825 14.8357 48.3182 14.8357C49.4541 14.8357 50.2863 13.9921 50.2863 11.8884ZM44.6691 11.8884C44.6691 9.20056 46.206 7.86523 48.3182 7.86523C50.4316 7.86523 51.9678 9.20055 51.9678 11.8884C51.9678 14.5132 50.5114 15.9111 48.3182 15.9111C46.1255 15.9111 44.6691 14.5132 44.6691 11.8884Z" fill="#036CB5"/>
<path d="M53.2339 9.00223C53.9541 8.58702 55.4754 7.86523 57.3156 7.86523C59.2361 7.86523 59.9551 8.58702 59.9551 10.168V15.7268H58.2917V10.5216C58.2917 9.30894 57.6684 9.09401 56.8512 9.09401C56.2117 9.09401 55.3944 9.37078 54.8987 9.64708V15.7268H53.2339V9.00223Z" fill="#036CB5"/>
<path d="M63.4785 11.1504H67.1434C67.0647 9.53881 66.2475 8.89455 65.3831 8.89455C64.4066 8.89455 63.6552 9.616 63.4785 11.1504ZM68.4236 14.0378V15.2048C67.7037 15.6039 66.7433 15.9111 65.5907 15.9111C62.9033 15.9111 61.7982 14.3144 61.7982 11.8888C61.7982 9.55414 63.03 7.86523 65.4312 7.86523C67.4326 7.86523 68.6656 9.10971 68.6656 11.6117V12.1798H63.447C63.447 14.0217 64.2313 14.8357 65.88 14.8357C66.7433 14.8357 67.5449 14.5435 68.4236 14.0378Z" fill="#036CB5"/>
<path d="M75.3135 7.86475H77.0266L74.1292 15.5404C73.3279 17.6594 72.3526 18.765 70.5123 18.765V17.5069C71.6014 17.5069 72.2725 16.6773 72.6575 15.5404L69.5843 7.86475H71.3452L73.3938 13.5147H73.4898L75.3135 7.86475Z" fill="#036CB5"/>
<path d="M7.61383 8.12178H7.50126L5.38774 15.7841H3.66025L1.06708 4.89844H2.85946L4.65226 13.021H4.76421L6.84465 4.89844H8.26965L10.4946 13.021H10.6066L12.2395 4.89844H14.1124L11.5185 15.7841H9.7897L7.61383 8.12178Z" fill="#036CB5"/>
</svg>
